<svg width="100" height="59" viewBox="0 0 100 59" fill="none" xmlns="http://www.w3.org/2000/svg">
<g clip-path="url(#clip0_255_2466)">
<path d="M100 56.5119C96.3625 57.4366 94.1125 56.5524 92.0942 53.5216L77.7377 33.6593L75.6624 30.9091L58.8969 53.5876C56.9814 56.3161 54.9721 57.5027 51.3969 56.5374L72.8657 27.7186L52.8781 1.68675C56.3154 1.0185 58.6906 1.35825 60.7997 4.43701L75.6902 24.5468L90.6902 4.54651C92.6117 1.818 94.678 0.7815 98.128 1.7865L90.3782 12.0615L79.8782 25.7333C78.628 27.2956 78.7997 28.3651 79.9502 29.8733L100 56.5119ZM0.0255001 27.2371L1.78125 18.5993C6.56252 1.50525 26.1563 -5.59802 39.6691 4.96426C47.5659 11.1765 49.5286 19.9643 49.1379 29.8081H4.62526C3.95701 47.5269 16.71 58.2204 32.9686 52.7649C38.6716 50.8494 42.0309 46.3831 43.7124 40.7964C44.5659 37.9966 45.9774 37.5586 48.6091 38.3588C47.2659 45.3466 44.2344 51.1839 37.8278 54.8371C28.2563 60.3054 14.5928 58.5369 7.40627 50.9371C3.12451 46.5271 1.356 40.9404 0.562501 34.9651C0.437251 33.9773 0.1875 33.0368 0 32.0903C0.0165 30.4733 0.0255001 28.8571 0.0255001 27.2401V27.2371V27.2371ZM4.70626 26.0498H44.9311C44.6686 13.2375 36.6908 4.13701 25.7873 4.05976C13.8188 3.96601 5.22451 12.8498 4.70551 26.0498H4.70626V26.0498Z" fill="black"/>
</g>
<defs>
<clipPath id="clip0_255_2466">
<rect width="100" height="58.0164" fill="white"/>
</clipPath>
</defs>
</svg>
