<svg width="34" height="38" viewBox="0 0 34 38" fill="none" xmlns="http://www.w3.org/2000/svg">
<path d="M0 0H34L30 34L17 38L3 34L0 0Z" fill="#EB5500"/>
<path d="M30.63 3L27.25 31.71L17 34.86V3H30.63Z" fill="#EF732E"/>
<path d="M17 16L18 18L17 20H7.79001L8.64001 7H17L18 9L17 11H13.03L12.7 16H17Z" fill="#FAF9F8"/>
<path d="M16.9 27.57L17 27.54L18 30L17 31.72L16.94 31.74L8.60999 29.36L8.04999 23H12.07L12.35 26.27L16.9 27.57Z" fill="#EBEBEB"/>
<path d="M26.07 16L24.5 29.42L17 31.72V27.54L20.83 26.36L21.57 20H17V16H26.07Z" fill="white"/>
<path d="M26.92 13H22.93L22.67 11H17V7H26.13L26.3 8.26L26.92 13Z" fill="white"/>
</svg>
