<svg width="44" height="33" viewBox="0 0 44 33" fill="none" xmlns="http://www.w3.org/2000/svg">
<path d="M37.867 18.9561C36.329 18.9641 34.997 19.3331 33.881 19.8841C33.473 19.0691 33.059 18.3521 32.99 17.8191C32.909 17.1971 32.815 16.8251 32.913 16.0841C33.011 15.3431 33.44 14.2931 33.434 14.2141C33.428 14.1351 33.338 13.7581 32.451 13.7511C31.564 13.7451 30.805 13.9221 30.716 14.1561C30.627 14.3901 30.456 14.9171 30.35 15.4671C30.195 16.2711 28.579 19.1401 27.662 20.6401C27.362 20.0541 27.107 19.5381 27.054 19.1301C26.973 18.5081 26.879 18.1361 26.977 17.3951C27.075 16.6541 27.504 15.6041 27.498 15.5251C27.492 15.4461 27.402 15.0691 26.515 15.0621C25.628 15.0561 24.869 15.2331 24.78 15.4671C24.691 15.7011 24.595 16.2481 24.414 16.7781C24.232 17.3071 22.085 22.0921 21.522 23.3331C21.235 23.9651 20.986 24.4731 20.81 24.8191C20.809 24.8181 20.809 24.8171 20.809 24.8171C20.809 24.8171 20.798 24.8401 20.78 24.8791C20.629 25.1741 20.54 25.3371 20.54 25.3371C20.54 25.3371 20.541 25.3391 20.543 25.3431C20.423 25.5601 20.295 25.7611 20.232 25.7611C20.188 25.7611 20.099 25.1841 20.251 24.3921C20.571 22.7321 21.338 20.1441 21.331 20.0541C21.327 20.0081 21.474 19.5571 20.83 19.3211C20.204 19.0921 19.981 19.4741 19.924 19.4751C19.869 19.4761 19.828 19.6101 19.828 19.6101C19.828 19.6101 20.525 16.6991 18.498 16.6991C17.23 16.6991 15.474 18.0861 14.609 19.3431C14.063 19.6411 12.894 20.2791 11.655 20.9601C11.179 21.2221 10.693 21.4891 10.232 21.7431C10.201 21.7081 10.169 21.6741 10.137 21.6391C7.67801 19.0161 3.13401 17.1611 3.32601 13.6341C3.39601 12.3521 3.84201 8.97605 12.059 4.88205C18.79 1.52805 24.179 2.45105 25.11 4.49605C26.44 7.41905 22.23 12.8501 15.24 13.6341C12.577 13.9331 11.174 12.9001 10.825 12.5161C10.458 12.1111 10.403 12.0931 10.266 12.1691C10.043 12.2931 10.184 12.6501 10.266 12.8631C10.475 13.4061 11.331 14.3691 12.791 14.8491C14.076 15.2711 17.203 15.5021 20.984 14.0391C25.22 12.4011 28.527 7.84305 27.555 4.03405C26.567 0.160054 20.143 -1.11395 14.063 1.04605C10.44 2.33205 6.52301 4.35005 3.70601 6.98405C0.357009 10.1161 -0.176991 12.8431 0.0430092 13.9821C0.825009 18.0301 6.40401 20.6661 8.63801 22.6191C8.52801 22.6801 8.42401 22.7371 8.33001 22.7891C7.21001 23.3431 2.95701 25.5691 1.89301 27.9201C0.686009 30.5871 2.08501 32.5011 3.01101 32.7591C5.88001 33.5571 8.82401 32.1211 10.407 29.7611C11.989 27.4021 11.796 24.3291 11.07 22.9271C11.061 22.9101 11.051 22.8931 11.042 22.8751C11.331 22.7041 11.626 22.5301 11.918 22.3581C12.488 22.0231 13.048 21.7111 13.533 21.4471C13.261 22.1911 13.062 23.0841 12.959 24.3731C12.837 25.8871 13.458 27.8441 14.27 28.6141C14.628 28.9531 15.058 28.9611 15.33 28.9611C16.275 28.9611 16.706 28.1751 17.181 27.2451C17.763 26.1051 18.28 24.7771 18.28 24.7771C18.28 24.7771 17.632 28.3631 19.398 28.3631C20.042 28.3631 20.689 27.5281 20.978 27.1031C20.979 27.1081 20.979 27.1101 20.979 27.1101C20.979 27.1101 20.996 27.0821 21.029 27.0271C21.096 26.9251 21.134 26.8601 21.134 26.8601C21.134 26.8601 21.135 26.8531 21.137 26.8411C21.396 26.3921 21.97 25.3681 22.83 23.6791C23.942 21.4971 25.008 18.7631 25.008 18.7631C25.008 18.7631 25.107 19.4311 25.432 20.5371C25.623 21.1871 26.029 21.9061 26.35 22.5961C26.092 22.9541 25.934 23.1591 25.934 23.1591C25.934 23.1591 25.935 23.1631 25.938 23.1701C25.732 23.4441 25.501 23.7391 25.259 24.0271C24.381 25.0721 23.336 26.2661 23.196 26.6101C23.031 27.0161 23.07 27.3141 23.389 27.5551C23.622 27.7301 24.036 27.7581 24.469 27.7291C25.258 27.6761 25.812 27.4801 26.086 27.3611C26.513 27.2101 27.01 26.9731 27.476 26.6301C28.337 25.9971 28.856 25.0921 28.806 23.8921C28.778 23.2311 28.568 22.5761 28.301 21.9581C28.379 21.8461 28.457 21.7321 28.536 21.6181C29.893 19.6341 30.946 17.4541 30.946 17.4541C30.946 17.4541 31.045 18.1221 31.37 19.2281C31.534 19.7871 31.859 20.3981 32.151 20.9961C30.875 22.0331 30.084 23.2381 29.809 24.0281C29.301 25.4901 29.699 26.1521 30.445 26.3031C30.783 26.3711 31.261 26.2161 31.62 26.0641C32.067 25.9161 32.604 25.6691 33.106 25.3001C33.967 24.6671 34.795 23.7811 34.745 22.5821C34.722 22.0361 34.574 21.4941 34.373 20.9741C35.455 20.5231 36.855 20.2731 38.639 20.4811C42.466 20.9281 43.216 23.3171 43.073 24.3171C42.929 25.3171 42.127 25.8671 41.858 26.0331C41.59 26.1991 41.508 26.2571 41.53 26.3801C41.563 26.5591 41.687 26.5531 41.916 26.5141C42.231 26.4611 43.925 25.7011 43.998 23.8551C44.089 21.5091 41.844 18.9351 37.867 18.9561ZM8.37001 28.9001C7.10201 30.2831 5.33201 30.8051 4.57201 30.3651C3.75201 29.8901 4.07701 27.8541 5.63201 26.3861C6.58001 25.4921 7.80401 24.6681 8.61601 24.1611C8.80101 24.0501 9.07201 23.8871 9.40201 23.6891C9.45701 23.6581 9.48801 23.6411 9.48801 23.6411L9.48701 23.6391C9.55101 23.6011 9.61601 23.5621 9.68301 23.5211C10.25 25.6101 9.70101 27.4491 8.37001 28.9001ZM17.605 22.6231C17.164 23.6991 16.24 26.4531 15.677 26.3051C15.194 26.1781 14.9 24.0851 15.581 22.0251C15.923 20.9881 16.655 19.7491 17.085 19.2681C17.777 18.4941 18.539 18.2411 18.724 18.5551C18.959 18.9551 17.882 21.9481 17.605 22.6231ZM25.234 26.2631C25.047 26.3611 24.875 26.4221 24.796 26.3751C24.737 26.3401 24.873 26.2111 24.873 26.2111C24.873 26.2111 25.827 25.1841 26.203 24.7171C26.422 24.4451 26.675 24.1221 26.951 23.7621C26.953 23.7981 26.954 23.8341 26.954 23.8691C26.952 25.0991 25.764 25.9291 25.234 26.2631ZM31.111 24.9231C30.971 24.8241 30.995 24.5031 31.454 23.5021C31.634 23.1091 32.046 22.4481 32.76 21.8161C32.843 22.0761 32.893 22.3251 32.892 22.5571C32.883 24.1051 31.779 24.6831 31.111 24.9231Z" fill="#F06292"/>
</svg>
