<svg xmlns="http://www.w3.org/2000/svg" viewBox="0 0 24 24">
  <path d="M11.677734 2.1816406C11.255625 2.2202656 10.879797 2.5279063 10.779297 2.9726562L10.224609 5.4179688L7.5136719 8.4296875C7.1826719 8.7966875 7 9.2735781 7 9.7675781L7 19C7 20.105 7.895 21 9 21L17.03125 21C17.77225 21 18.443141 20.563719 18.744141 19.886719L21.746094 13.130859C21.913094 12.756859 22 12.351406 22 11.941406L22 11C22 9.9 21.1 9 20 9L13 9C13 9 14 6.6292813 14 4.8632812C14 3.2502813 12.962422 2.5443281 12.107422 2.2363281C11.964672 2.1845781 11.818437 2.1687656 11.677734 2.1816406 z M 3.5 9C2.672 9 2 9.672 2 10.5L2 19.5C2 20.328 2.672 21 3.5 21C4.328 21 5 20.328 5 19.5L5 10.5C5 9.672 4.328 9 3.5 9 z" fill="#FFFFFF" />
</svg>