<svg width="4320" height="700" viewBox="0 0 4320 700" fill="none" xmlns="http://www.w3.org/2000/svg">
<path d="M0 350V210H65.5V0H130.9H196.4V70H261.8V560H327.3H392.7V70H458.2V280H523.6V420H589.1V350H654.5V420H720V0H785.5V280H850.9V420H916.4V0H981.8V350H1047.3V490H1112.7V420H1178.2V140H1243.6V630H1309.1V140H1374.5V490H1440V700H1374.5H1309.1H1243.6H1178.2H1112.7H1047.3H981.8H916.4H850.9H785.5H720H654.5H589.1H523.6H458.2H392.7H327.3H261.8H196.4H130.9H65.5H0V350Z" fill="url(#paint0_linear_230_2456)"/>
<path d="M1440 350V0H1505.5V560H1570.9V140H1636.4H1701.8V490H1767.3V420H1832.7V630H1898.2V70H1963.6H2029.1V280H2094.5V0H2160V700H2225.5V630H2290.9V280H2356.4V700H2421.8V490H2487.3V350H2552.7V560H2618.2V140H2683.6V350H2749.1V560H2814.5V210H2880V700H2814.5H2749.1H2683.6H2618.2H2552.7H2487.3H2421.8H2356.4H2290.9H2225.5H2160H2094.5H2029.1H1963.6H1898.2H1832.7H1767.3H1701.8H1636.4H1570.9H1505.5H1440V350Z" fill="url(#paint1_linear_230_2456)"/>
<path d="M2880 350H2948.6V210H3017.1V350H3085.7V0H3154.3V210H3222.9V560H3291.4V350H3360V420H3428.6V560H3497.1V350H3565.7V70H3634.3V560H3702.9V350H3771.4V280H3840H3908.6V210H3977.1V630H4045.7V420H4114.3V0H4182.9V420H4251.4V210H4320V700H4251.4H4182.9H4114.3H4045.7H3977.1H3908.6H3840H3771.4H3702.9H3634.3H3565.7H3497.1H3428.6H3360H3291.4H3222.9H3154.3H3085.7H3017.1H2948.6H2880V350Z" fill="url(#paint2_linear_230_2456)"/>
<defs>
<linearGradient id="paint0_linear_230_2456" x1="720" y1="0" x2="720" y2="700" gradientUnits="userSpaceOnUse">
<stop stop-color="#416883"/>
<stop offset="0.0001" stop-color="#416883" stop-opacity="0.7"/>
<stop offset="1" stop-color="#1C2C35" stop-opacity="0.24"/>
</linearGradient>
<linearGradient id="paint1_linear_230_2456" x1="2160" y1="0" x2="2160" y2="700" gradientUnits="userSpaceOnUse">
<stop stop-color="#416883"/>
<stop offset="1" stop-color="#1C2C35" stop-opacity="0.24"/>
</linearGradient>
<linearGradient id="paint2_linear_230_2456" x1="3600" y1="0" x2="3600" y2="700" gradientUnits="userSpaceOnUse">
<stop stop-color="#416883"/>
<stop offset="1" stop-color="#1C2C35" stop-opacity="0.24"/>
</linearGradient>
</defs>
</svg>
